<svg
xmlns="http://www.w3.org/2000/svg"
height="1em"
width="1em"
viewBox="0 0 1720.2 375"
>
<defs>
  <linearGradient id="Gradient1" >
    <stop offset="0%" stop-color="var(--chakra-colors-teal-300)"/>
    <stop offset="30%" stop-color="var(--chakra-colors-blue-300)" />
    <stop offset="50%" stop-color="var(--chakra-colors-orange-300)" stop-opacity=".6" />
    <stop offset="70%" stop-color="var(--chakra-colors-purple-300)" />
    <stop offset="100%" stop-color="var(--chakra-colors-pink-300)"/>
  </linearGradient>
</defs>
<g fill="currentColor">
    <path fill="url(#Gradient1)" d="M1712.1 16.7h-6.5c-2.3 6.7-5.5 11.3-11.3 11-.2-4.8-.5-9.3-.7-14.2-3-1.7-5.9-4.8-8.9-5.1-3.4-.3-6-.4-6.9-6-2.8 1.5-5 2.8-7.4 4.1-2.2-2.9-4.6-4.6-7.7-2.3-.9.6-2.7.6-3.2-.1-3.8-6.2-9.1-1.3-13.3-3.9-.8-.4-1.9.3-3.5.6 1.6 2.3 2.5 3.8 3.2 4.8-3.3.7-6.6 1-9.6 2.5-2.4 1.2-4.4 3.8-6.5 5.8-4 4.1-9.6 3.8-13 9.6-.3.6-1.2.6-2.6 1.2-.1-9.7-4.2-14.8-10.1-18-.6.7-1.4 1.5-2 2.2-3.8 4.6-8.5 5.5-13.1 7.6-4.3 1.9-7.3 9.9-13.2 11.2-1-5.8-3.9-6.7-7.1-5.8-3.9 4.2-7.2 9.3-11.3 11.9-3.5 2.2-7.8 1.5-11.8 2.2-2.6.4-5.7.1-7.7 2.2-7.8 7.6-16.7 8-25.3 10-1.6-6.7-1.6-6.4-5-3.5-2.4 2-5.4 4.2-8 3.8-4.4-.7-8.3.4-12.4 2-4.2 1.6-8.7 2.3-12.3-3.2-2-3-4.4-3.5-7.3-2.6-8.2 2.5-16.5 4.8-24.8 6.5-3.9.9-8.2-1.2-11.9.3-7.5 2.9-14.7.1-21.8-1.2-4-.7-7.8-4.2-12.1-1.3-.6.4-1.6-.4-2.3-1-5.5-4.1-10.8-4.4-16.1.9-1.2 1.2-3 1.2-4.5 1.5-2.9.4-5.7.7-8.6 1-1.1.1-2.5.1-3.2-.7-3.6-5.1-7.9-2.8-12.1-2.8-1.8 0-3.5.1-5.2 0-3.1-.3-6.1-1.5-9.1-1.2-5.1.6-10.1 2-15.1 2.8-11.3 1.6-21.9-4.8-32.9-5.7-3.9-.3-8-2.9-10.8 3.8-.3.7-1.2 1.3-1.7 1.2-4.7-1.3-10.6-1-13.8-4.9-2.9-3.6-5-3.8-7.9-3-7 1.7-14.1 3.6-21.1 5.2-1.5.3-3.4 1.2-4.4.1-2.5-2.5-4.3-.9-6.7.4-2.3 1.2-6.1 2-7.4.3-2.8-3.9-5.6-3.2-8.6-2.9-3.8.4-7.6 1.2-11.3 1.5-9.4.6-18.7.7-28.1 1.6-3.4.3-6.8 2.9-10.2 2.6-5.1-.4-10.1-2.3-15.1 1-.5.3-1.4.1-1.9-.3-6.9-5.2-14.2-3.6-21.5-2.8h-.5c.1-.9.1-1.6.2-2.3 3.5-5.4 8.7 4.9 12.2-3.2-5.8-1.9-11.3-4.5-16.8-5.1-27.6-3.2-55.1-9.6-83-8.4-6.3.3-12.6 0-18.9-.3-1.7-.6-3.4-1.2-5.1-1.9-5.6-2.6-11.2-2.3-16.8-3.5-2.6-.4-6.1-.1-7.7-2.3-5-6.7-9.8-4.4-14.7-1-2.6 1.7-4.7.7-7-.7-6-3.6-12.6-1.6-18.8-3.9-.5-.1-1.3.4-1.9.9-3.9 1.9-7.8 3.6-11.2 5.2 1.6 1.3 2.9 2.3 4 3.2h-1.2c-14.7-.1-29.4.1-44.1 1-24 1.5-48.1 2.5-72.1 5.7-22.8 3-45.5 8.3-68.1 13.2-28.9 6.4-58 4.2-87 5.7-35.4 1.9-71.1-1.6-106.2 9.3-12.9 4.1-26.2 6.1-39.3 9-7.2-.6-14.3-1.3-21.5-3.2-14.2-3.6-28.6-5.1-42.9-7.4-7-1.2-13.9-2.3-20.9-3.5 8.3-2 16.7.7 24.7-3.9.6-.3 1.4 0 2.2.1 7.7 1 15.5 2.2 23.2 2.9 1.8.1 3.7-1.2 5.6-1.7-6.3-3.8-12.3-6.2-18.4-7.3-13.5-2.3-27.1-5.1-40.7-5.8-23.7-1-47.2-5.8-71-4.2-19.3 1.3-38.6 1.2-57.8 2.9-20 1.7-39.9 4.9-59.8 7.7-13.1 1.9-26.2 4.6-39.3 6.1-10.1 1.2-19.7 4.2-29.2 9.1-8.9 4.6-17.8 9.6-26.8 13.7-7.9 3.5-16.1 5.7-24.1 8.6-3.8 1.5-8 1.7-11.1 7.3 3.3 1.3 6 2.3 8.7 3.3.2.7.3 1.3.5 2l-5.1 3.9c.3.7.6 1.5.9 2.3 5.9-1.6 11.9-3 17.7-5.1 4.3-1.5 8.3-3.2 12.8-1.2 2.4 1.2 5.5.9 7.9-.3 13.1-6.7 26.9-6.4 40.4-9 9.4-1.9 18.9-2.2 28.4-3.3 4.8-.6 9.6-1.6 14.3-2.3 1.8 0 3.6 0 5.9.1-2.5 5.1-4.1.6-5.9-.1-.2 4.2-2.7 4.4-4.7 5.1-2.6 1-5.3 1.5-7.8 2.3-18.2 6.2-36.5 12.2-54.7 18.7-17.2 6.1-34.8 10.2-51.1 20.9-4.6 3-9.6 5.1-14.5 7.6 0 0 0 .1.1.1h4.5c-3.2 3.2-3.3 3.2-4.5 0H99c.1 0 .2-.1.3-.1 0 0 0-.1-.1-.1-1.4.1-2.8.3-4.5.4.7 1.3 1.3 2.3 2.2 3.9-12.4 4.6-24.4 8.6-36.2 13.5-12 4.9-24.5 7.6-36.1 15 1.9 5.4 3.7 3.9 5.7 2 3.9-3.6 8.1-5.2 12.4-1.7 5.5 4.5 10.6 2.3 15.4-1.6 1.9 1.6 3.5 3 5.2 4.5 2.1-3.5 1.5-9.9 6.1-9.1 5.8.9 11.6 1.5 18.3 2.3 2.8-3.6 6.5-5.1 11.1-1.5 3.8 2.9 7.7 2.8 11.3-2.2 7.6-10.2 16.5-16.1 27.1-16.7.9 0 1.9-.9 2.8-1.2 4.8-1 9.6-1.9 14.3-2.9.1.7.3 1.5.4 2.2-2.9 1.3-5.7 2.9-8.6 3.9-6.3 2.3-13.1 2.9-18.6 8.7-1 1-1.6 2.8-3.3 5.8 6.8-.9 12.1-1.6 17.5-2.3-.9 2.6-2 3.9-3.3 4.4-13.1 5.7-26.2 11-39.2 16.8-6.5 2.9-12.9 6.5-19.2 10.2-.5.3-.6 1.9-.8 3 3.4-1.7 6.7-3.9 10.2-5.1 29.9-10.3 60.3-17.3 90.7-23.7 6.8-1.5 13.8-1.3 20.7-1.9-1.7 2.6-3.7 3.8-5.7 4.2-18.5 4.5-37.1 8.3-55.5 13.7-19.8 5.8-39.4 13.1-58.9 20.3-9.6 3.6-19 8.7-28.4 13.5-1.3.7-2.3 3-3.4 4.6 1.4 1.5 2.8 3.6 4.4 4.4 1.4.6 3.6.1 4.8-1 3.3-3.3 6.3-2.5 9.7-.9 2.2 1 5.2 2.6 6.9 1.5 4.6-3.3 8.1 0 11.7 2.6 4.9 3.5 8.4 1.9 11.2-5.5-1.4-1.2-2.8-2.5-4.2-3.6 3.2-7.6 8.1-6.2 11.7-3.2 3.6 2.9 6.4 2.2 9.7.7 2.1-.9 4-2.3 6-3.6 3.6-2.3 6.9-2.3 8.7 2.8 5.3-2.9 10.3-5.5 15.2-8.3-.3-1.2-.7-2.3-1.2-4.2 3.7 0 6.9.1 11.6.1-1.5 3.8-2.1 7-3.6 8.4-2.7 2.8-5.8 4.9-9 6.5-5.3 2.8-10.7 4.6-16 7.4-4.8 2.5-9.3 5.7-14.1 8.3-7.9 4.4-15.9 8.4-23.8 12.8-5 2.8-6 7-3.7 14.1.5 1.5 1.1 2.8 1.6 4.2-.5-.4-1-.9-1.6-1.3-2.8 4.2-5.7 8.3-9.1 13.4-1-.4-3.6-1.3-6.1-2.5-3.1-1.5-6.9-1.5-7.2-8.4 0-1.2-3.1-3.3-4.6-3-2.4.4-4.7 2.6-7.7 4.5 4.1 11.9 8.2 23.7 12.7 36.6-5.5 2.6-10.7 5.5-16 7.6-5.4 2-10.9 3.3-15.9 4.8-1.5 9.6-1.4 10-7.3 11.5-6 1.5-12.1 1.9-18.1 3.2-2.2.4-5.6-.1-5.7 4.6-.1 4.4.9 8.7 1.4 13.2 2.9 0 5 0 7.1.1 2.6-7.4 6.1-12.2 12.5-11.8.2 5.4.5 10.2.7 15.7 3.2 2 6.4 5.4 9.7 5.7 3.7.3 6.5.6 7.5 6.7 3-1.6 5.5-2.9 8.1-4.4 2.4 3.2 5 5.2 8.4 2.8.9-.7 3-.6 3.5.3 4.1 6.8 9.9 1.6 14.5 4.5.8.6 2-.3 3.8-.6-1.7-2.6-2.7-4.1-3.5-5.4 3.6-.9 7.2-1 10.5-2.6 2.6-1.2 4.9-4.1 7.2-6.2 4.4-4.4 10.5-4.1 14.3-10.3.4-.6 1.3-.6 2.8-1.3.1 10.6 4.5 16.3 10.9 19.9.7-.7 1.5-1.5 2.2-2.5 4.2-5.1 9.3-6 14.3-8.1 4.7-2 8.1-10.6 14.6-12.1 1 6.2 4.3 7.3 7.7 6.5 4.3-4.6 8-10 12.5-12.8 3.8-2.3 8.6-1.5 12.9-2.2 2.8-.4 6.2-.1 8.4-2.2 8.6-8.1 18.3-8.6 27.8-10.5 1.7 7.3 1.7 7 5.4 3.9 2.6-2.2 6-4.5 8.7-3.9 4.8.9 9.1-.3 13.6-2 4.6-1.7 9.6-2.5 13.4 3.6 2.1 3.5 4.8 3.9 8 2.9 9-2.6 18-5.1 27.1-6.8 4.3-.9 9 1.5 13-.1 8.2-3.2 16.1 0 23.8 1.7 4.4.9 8.5 4.6 13.2 1.6.6-.4 1.8.6 2.5 1.2 6 4.5 11.7 4.9 17.6-.7 1.3-1.3 3.2-1.3 4.9-1.6 3.1-.4 6.3-.7 9.4-.9 1.2 0 2.8-.1 3.5.9 3.9 5.5 8.7 3.2 13.2 3.2 1.9 0 3.8-.1 5.7 0 3.3.4 6.7 1.6 10 1.3 5.5-.4 11-2.2 16.5-2.9 12.3-1.6 23.9 5.7 35.9 6.7 4.3.4 8.8 3.3 11.8-3.9.3-.7 1.3-1.3 1.9-1.2 5.1 1.6 11.5 1.3 15 5.7 3.2 3.9 5.5 4.2 8.7 3.5 7.7-1.7 15.4-3.6 23.1-5.5 1.6-.4 3.7-1.2 4.8-.1 2.7 2.6 4.7 1 7.3-.3 2.5-1.3 6.7-2.2 8.1-.1 3 4.2 6.1 3.6 9.4 3.3.7 0 1.5-.1 2.2-.3-1 .9-2 1.6-3 2.3-10.4 7.7-20.7 15.5-31.2 22.8-9.2 6.4-19.1 10.6-28.2 20.6 5.8-.7 10.6-2.5 15.1-1.6 5 1 9.5.4 14-2.3 1.4-.9 3.1-1.9 4.6-1.9 6.6.1 13.2 2.3 19.9-1.9 2.1-1.3 4.7-1.3 7.1-3.3 6.7-5.4 13.9-7.3 21.8-2.8 2.7-5.1 6.5-6.7 11.1-5.1 1.1.4 2.5-.3 3.7-.7 5.9-2 11.7-5.4 17.7-6.2 23.1-3.3 46.3-6.2 69.4-9 14-1.6 28.1-3 42.1-4.5 4.2.9 8.4 2 11.6 4.9 5.8 5.4 11.4.4 16.9 2.9 7.6 3.3 15.9 4.1 23.4 7.7 6.1 2.9 12.2 2.8 18.3 4.1 2.9.6 6.6.1 8.4 2.6 5.4 7.3 10.6 4.9 16 1.3 2.9-1.9 5.1-.7 7.6.9 6.5 4.1 13.8 1.9 20.5 4.5.6.3 1.4-.6 2.1-.9 4.3-1.9 8.5-3.9 12.3-5.5-9.1-7.3-9.1-7.3-8.5-12.9 3.4 0 6.8.1 10.1.1.7-4.2 1.2-7.1 1.8-10.9 6.3.6 12.4 1 18.4 1.5.1-.7.2-1.5.4-2.2-1.6-1.3-3.1-2.6-4.8-3.8-1.8-1.3-3.8-2.3-5.5-3.5.1-.9.3-1.7.5-2.5 7-.1 14-.3 20.9-.1 3.7 0 9.4-.3 10.7 2.6 3.4 7.7 8.1 3.8 12.1 5.1 1.2.4 2.9-2 5.1-3.8 3 1.3 7.1 3 11.2 4.8.1-.6.3-1 .4-1.6-.5-.7-1.1-1.3-2.3-2.9 4.5 0 8.5-1 12 .3 3.4 1.3 6.2 6.1 10.4 3.2-.2-1.3-.4-2.8-.7-4.9h48c.7-2.6 1.4-5.2 2-7.8 2.5 0 5.6 1.3 6.5-.3 2.8-4.5 4.9-1.2 6.8.4 1.6 1.3 2.7 4.2 3.7 6.7 1.4 3.6 3.3 3.2 5.4 2 .7-.3 1.3-1 2.9-2.3-1.6-1.5-2.6-2.5-4.6-4.4 2.1-1.5 4.1-3.9 5.3-3.3 3.6 1.9 4.8-3.2 6.7-4.8 3-2.5 6.2 4.6 8.3-1h-.1v-.4c-1.7-.9-3.4-1.9-5.1-2.8 0-.9.1-1.7.1-2.6 1.7-.6 3.4-1 5.4-1.6-.2 3-.3 5.1-.4 7 .1 0 .1.1.2.1-.1.1-.1.1-.2.3 2.7 2.2 4.8 1.9 6.9-1.9 1-1.9 2.6-3 4-4.6-6.3-15.1-15.2-8.7-24-5.2-.6-2.6-1.1-4.6-1.8-7.6 7.9 0 15.2-.9 21.6-2.9-1.1-2-2.3-4.2-4.1-7.4 9.5-.4 9.5-.4 15.9 7.6 1.6-1.9 3.2-3.6 5.2-6 2.6 3.3 4.9 6.2 8.8 1.9 1.9-2.2 6.1-.3 9.2 0 1.5.1 2.9 1.3 4.4 1.5 14.7 2.2 29.4 4.5 44.1 6.4 14.6 1.9 29.4-.6 43.8 4.5 1.7.6 3.7-.6 5.6-.4 8.8.7 17.5 1.6 26.3 2.5 1 .1 2.1.4 3.1 1 4.4 2.6 8.7 5.4 13 8 .2-.7.4-1.6.6-2.3-15.1-16.6-34.4-18.2-52-28 .8-1.5 1.6-2.8 2.4-3.9 2.2 0 4.3.1 6.4.7 7.5 2.2 15.1 2 22.6 2.8 11.6 1.2 23.1 2.6 34.7 3.6 8.7.7 17.3 1 26 3 13 3 26.2 4.2 39.3 6.2.8.1 1.5.3 2.3.3.1.4.2.9.2 1.3l2.4-.9c4.7.7 9.5 1.5 14.2 2.2-7.6 2-15.3-.4-22.6 3.8-.6.3-1.3 0-2-.1-7.1-.9-14.2-1.9-21.3-2.5-1.7-.1-3.4 1.2-5.1 1.7 5.8 3.3 11.3 5.5 16.9 6.4 12.4 2 24.9 4.4 37.3 4.8 21.7.7 43.2 4.6 65 2.9 17.6-1.5 35.3-1.5 52.9-3.3 18.2-1.9 36.4-5.1 54.6-7.8 12-1.9 23.9-4.5 36-6.1 9.2-1.2 18-4.1 26.7-8.7 8.1-4.4 16.2-9 24.5-12.8 7.2-3.2 14.7-5.4 22-8.1 3.4-1.3 7.3-1.6 10.1-6.8-3-1.2-5.5-2-8-2.9-.2-.6-.3-1.2-.5-1.7 1.6-1.2 3.1-2.3 4.7-3.6-.3-.7-.6-1.3-.9-2-5.4 1.6-10.8 2.9-16.2 4.9-3.9 1.5-7.5 3-11.7 1.2-2.2-1-5.1-.7-7.3.4-11.9 6.2-24.6 6.2-36.9 8.9-8.6 1.7-17.3 2.2-26 3.5-4.4.6-8.7 1.6-13.1 2.3h-5.4c2.2-4.6 3.7-.6 5.4 0 .1-3.9 2.4-4.1 4.3-4.8 2.4-.9 4.8-1.5 7.2-2.2 16.6-6 33.3-11.6 49.9-17.7 15.7-5.8 31.8-9.7 46.6-19.9 4.2-2.9 8.8-4.8 13.2-7 0 0 0-.1-.1-.1h-4.2c2.9-2.9 3-2.9 4.2 0h.3c-.1 0-.2.1-.3.1 0 0 0 .1.1.1 1.3-.1 2.6-.3 4.1-.4-.7-1.2-1.2-2-2-3.5 11.3-4.4 22.3-8.1 33.1-12.8 10.9-4.6 22.3-7.3 32.9-14.1-1.8-4.9-3.4-3.6-5.3-1.7-3.5 3.3-7.3 4.9-11.3 1.7-5.1-4.1-9.7-2-14.1 1.6-1.7-1.5-3.2-2.8-4.8-4.1-1.9 3.2-1.3 9-5.5 8.4-5.3-.7-10.7-1.2-16.8-1.9-2.5 3.3-5.9 4.6-10.2 1.5-3.5-2.6-7-2.5-10.4 2.2-6.9 9.3-15 15-24.7 15.7-.9 0-1.7.9-2.6 1-4.4 1-8.7 1.9-13.1 2.8-.1-.7-.3-1.3-.4-2 2.6-1.3 5.2-2.6 7.9-3.6 5.8-2.2 11.9-2.8 17-8.1.9-.9 1.4-2.5 3-5.4-6.2.9-11.1 1.6-16 2.3.8-2.5 1.8-3.6 3-4.1 11.9-5.4 23.9-10.3 35.8-15.8 5.9-2.8 11.7-6.2 17.5-9.4.4-.3.5-1.7.7-2.8-3.1 1.6-6.1 3.6-9.3 4.8-27.3 9.9-55.1 16.6-82.9 22.8-6.2 1.5-12.6 1.3-18.9 1.9 1.6-2.5 3.4-3.5 5.2-3.9 16.9-4.4 33.9-8 50.7-13.2 18.1-5.7 36-12.3 53.8-19.3 8.8-3.3 17.3-8.1 25.9-12.6 1.2-.6 2.1-2.8 3.1-4.4-1.3-1.3-2.5-3.3-4-3.9-1.3-.6-3.3-.1-4.4 1-3 3-5.8 2.3-8.9 1-2-.9-4.8-2.3-6.3-1.2-4.2 3.2-7.4 0-10.7-2.2-4.5-3-7.7-1.6-10.2 5.2 1.3 1 2.6 2.2 3.9 3.3-2.9 7-7.4 5.8-10.7 3.2s-5.9-1.9-8.8-.6c-1.9.9-3.7 2.2-5.5 3.3-3.3 2.2-6.3 2.3-7.9-2.3-4.9 2.6-9.4 5.2-13.8 7.7.3 1 .6 2.2 1.1 3.9h-10.6c1.4-3.5 1.9-6.4 3.2-7.7 2.5-2.6 5.3-4.6 8.2-6.1 4.8-2.6 9.8-4.4 14.6-7 4.3-2.3 8.5-5.4 12.8-7.7 7.2-4.1 14.5-7.8 21.7-12.1 4.6-2.6 5.5-6.4 3.3-12.9-.4-1.3-1-2.5-1.5-3.8.5.4 1 .9 1.4 1.2 2.6-3.8 5.1-7.7 8.2-12.3 1 .4 3.3 1.2 5.6 2.2 2.8 1.3 6.4 1.2 6.6 7.7 0 1 2.9 3 4.3 2.8 2.2-.4 4.2-2.5 7-4.2-3.8-10.7-7.6-21.5-11.8-33.3 5-2.5 9.7-5.2 14.6-7.1s9.9-3.2 14.5-4.6c1.3-8.9 1.2-9.1 6.6-10.6 5.5-1.5 11-1.9 16.5-3 2-.4 5.1.1 5.2-4.4.8-5.7-.1-9.7-.6-13.8zM47.9 313.4c7.5-2.6 13-.1 19.7 3-7 3.2-12.9 6.9-19.7-3zm77.3-61.2c-6.3-.4-11.8 3.6-17.5 6.2-2 .9-4.1 1-7.3 1.7 1.6-4.6 2.5-7.1 3.2-9.6.6-2.3.6-6.5 1.5-7 2.1-1 5.8-1.5 6.7.1 3.3 6.1 7.4 2.9 11.2 3.5 1.4.1 2.8.3 5.3.6-1.4 2.4-2.3 4.7-3.1 4.5zm13.9-7.2c-.1-1.3-.3-2.2-.1-2.6 1.6-2.8 3.2-2.2 5.7 2-2.6.3-4.1.4-5.6.6zm23.4-43.3c-3.4.6-4.1-2.6-4.6-8.4 3.1 6.2 6.2 2.8 9.3 2.2.2 5.8-2.2 5.8-4.7 6.2zm12.1 3.5c-.1-1.2-.2-2.2-.4-3.3 4.6-1.3 9.1-2.5 13.7-3.8.1.7.2 1.5.3 2.2-4.5 1.7-9.1 3.3-13.6 4.9zm-27.2-49.4c13.8-12.1 28.3-12.6 43.6-16-7.4 7.6-34.5 17.6-43.6 16zm50.4 42.1c0-.6-.1-1.3-.1-1.9 3.1-.9 6.3-1.7 9.4-2.6.1.7.2 1.6.3 2.3-3.2.8-6.4 1.5-9.6 2.2zm-88.5-66.3c36.9-10.3 73.3-24.7 111-29.6 1.2-.1 2.5 1 4.4 1.9-9.3 5.2-109.8 29.7-115.4 27.7zm1142.4 82.5c-.5-4.1-3.3-3.6-6.2-4.8 3.8-2.8 6.3-2 8.4 1.6.1 0 .2 0 .2.1.2-1.2.2-2.9.6-3 5.5-2.6 11-2.5 16.4 1.2-5.7 1.2-11.2 4.6-17 1.9v.3c-.1-.1-.1-.3-.2-.3h-.1c.2 1.3.5 2.6.7 3.9h-1.1c-.5-.5-1.1-.8-1.7-.9zm-819.9 10.4c5.2-3.8 9.4-6.8 13.6-9.7.6-.4 1.4-1 2-.9h.1c.2 1 .2 2.3.1 3.9-4.7 2.2-9.5 4.5-14.5 7-.5-.3-.9-.3-1.3-.3zm16.8-84.4c2.9-8.6 5.6-1 8.2-1.6 3.3-.9 6.8-.1 10.2-.1 3.1-.1 6.1-.4 9.3.4-2.2 5.2-5.2 1.3-7.8 1.5-3.4.1-6.8 0-10.2 0-3.1-.2-6.1-.2-9.7-.2zm54.3-6.1c1.1 0 3.1-.1 3.1 0 .3 5.2 3.4 4.6 6.7 6-4.2 2.9-6.9 2.2-9.2-1.7-.1 0-.2 0-.3-.1-.2 1.3-.2 3.2-.7 3.3-6.1 2.8-12.1 2.6-17.9-1.6 6.2-1.2 12.2-4.9 18.6-1.7v-.3c.1.1.2.3.2.4h.1c-.2-1.5-.4-3-.6-4.3zm-13.3 87.7c-1.8 1.5-3.5 2.2-5.4 1.5 1.8-.6 3.6-1 5.4-1.5zm-28.6 3.2c-3.9 1.2-7.7 1.5-11.6 1.5 3.7-1.6 7.6-2.6 11.6-1.5zm817.8-14.9c1.9-4.9 4.7-1.3 7.1-1.5 3.1-.3 6.2-.1 9.4-.1h8.9c-2.6 7.8-5.1.9-7.5 1.6-3 .7-6.2.1-9.3.3-2.9.1-5.7.4-8.6-.3zm54.8-78.1c-4.3 1.5-7.4 8-13.2 5.4 4.3-5 8.2-7.9 13.2-5.4zm-45.5.7c10.2-5.2 20.2-2.6 30.9-1.6-4.7 3.5-8.5 6.4-12.3 9.1-.6.4-1.2 1-1.8.9-4.7-.4-9.4-1.2-14.1-1.7-1.3-.1-2.6-.1-4.9-.3 1.1-2.9 1.7-5 2.2-6.4zm-13.2-1.3c-11.6 5.4-23.4 4.1-36.2 3.5 1.1-1.6 1.8-3 2.1-2.9 8 4.2 15.9-.3 23.8-.4 3.4-.2 6.8-.2 10.3-.2zm-859 92c4.7-1.6 8.1-8.7 14.5-5.7-4.7 5.3-9.1 8.5-14.5 5.7zM695 325.4v-.1c1.4 0 2.9 0 4.4-.1.7 0 1.4-.1 2.1-.1v.4c-2.2-.1-4.3-.1-6.5-.1zm117.3-7.4c3 0 6.1 0 9.1.1.6.4 1.2.9 1.8 1.5 1.1 1 2.2 1.7 3.3 2.2-2.7-.1-5.4-.3-8 0-2.3-.7-4.7-1.7-7-3.2.2-.3.5-.4.8-.6zm27.1 12.4c-3.6-3.3-7.6-4.9-11.8-6.1h2.8c2.7 0 5.4.1 8.1 0 1.4 1.3 2.8 3 4 5.5-1.7.4-2.7 1-3.1.6zm138.1-15.3c-5.7-1-11.4-2-17.2-2.9 6.1-2.9 12-2.5 17.7 0-.2 1-.3 1.9-.5 2.9zm7.3-12.6c3.3.3 6.5.6 11.2 1-6 4.7-6 4.7-11.2-1zm46.4-3.9c-1.8 6.8-3.5 7.3-6.7 2.5 2.5-.9 4.3-1.7 6.7-2.5zm140.2-29.1h-8.7v-.9h.1c2.6.3 5.3 0 7.9-.1.2.2.4.6.7 1zm408.3-79.3c-12.5 11.2-25.8 11.9-39.8 15.1 6.7-6.9 31.4-16.4 39.8-15.1zm35 21.7c-33.7 9.9-67 23.5-101.4 28.5-1.1.1-2.3-.9-4.1-1.7 8.6-4.8 100.4-28.6 105.5-26.8zm-89.9-55.4c-.1-.7-.2-1.5-.3-2.2 2.9-.7 5.8-1.5 8.8-2.2 0 .6.1 1.2.1 1.7-2.8 1.1-5.7 2-8.6 2.7zm17.6-4.6c-.1-.7-.2-1.3-.3-2 4.2-1.6 8.3-3 12.5-4.6l.3 3c-4.2 1.3-8.4 2.4-12.5 3.6zm19 2.3c-.3-5.2 2-5.4 4.2-5.8 3.2-.6 3.7 2.3 4.3 7.7-2.9-5.7-5.7-2.3-8.5-1.9zm25.4-43.3c-1.5 2.5-2.9 2-5.3-1.7 2.4-.3 3.8-.4 5.2-.6.1 1.2.3 2.1.1 2.3zm32.4-7.8c-.6 2.2-.5 6-1.3 6.4-1.9.9-5.3 1.5-6.2-.1-3.1-5.5-6.8-2.6-10.3-3-1.3-.1-2.6-.3-4.9-.4 1.4-2 2.1-4.2 2.9-4.2 5.8.3 10.7-3.5 16-5.8 1.8-.9 3.8-.9 6.7-1.6-1.5 4.1-2.3 6.4-2.9 8.7zm32.5-60.8c6.4-3 11.8-6.4 18 2.6-6.8 2.4-11.9.3-18-2.6z"></path>
    <path d="M1653.9 178c-2.2-2-3.9-3.6-6.5-6-.6 8.2.1 8.8 6.5 6zM79.3 191.1v-.3c-.1 0-.1 0-.2.1zM66.2 168c2.4 2.2 4.3 4.1 7 6.5.8-8.8 0-9.4-7-6.5z"></path>
</g>
</svg>