<svg
    id="svg3773"
    viewBox="0 0 499.99 499.99"
    version="1.1">
  <g
      id="layer1"
      transform="translate(1935 -830.08)">
    <g
        id="Слой_x0020_1-5"
        transform="matrix(1.5439 0 0 1.5439 -1935 830.08)">
      <circle
          id="circle3959"
          fill="#000000"
          stroke="#000000"
          stroke-width=".23806"
          d="m 323.72899,161.924 c 0,89.36243 -72.44256,161.80499 -161.80499,161.80499 C 72.561566,323.72899 0.1190033,251.28643 0.1190033,161.924 0.1190033,72.561566 72.561566,0.1190033 161.924,0.1190033 c 89.36243,0 161.80499,72.4425627 161.80499,161.8049967 z"
          cy="161.92"
          cx="161.92"
          r="161.8"
      />
      <circle
          id="circle3961"
          fill="#000000"
          stroke="#000000"
          stroke-width=".23806"
          d="m 309.40599,161.924 c 0,81.45205 -66.02994,147.48199 -147.48199,147.48199 -81.452061,0 -147.481999,-66.02994 -147.481999,-147.48199 0,-81.452061 66.029938,-147.481999 147.481999,-147.481999 81.45205,0 147.48199,66.029938 147.48199,147.481999 z"
          cy="161.92"
          cx="161.92"
          r="147.48"
      />
      <path
          id="path3963"
          class="fil2"
          fill="#050707"
          d="m41.123 185.96h11.294c11.213 165.04 248.98 116.18 199.71-9.1332h-211.01v9.1332z"
      />
      <path
          id="path3965"
          class="fil3"
          fill="#881846"
          d="m245.86 186.21-183.75 0.008c18.239 150.24 213.66 103.19 183.75-0.008z"
      />
      <path
          id="path3967"
          class="fil2"
          fill="#050707"
          d="m176.27 91.114c-9.6714 12.316-17.811 31.937-8.2086 59.503l88.527 0.009c6.6797-20.838 4.7654-49.806-13.117-65.026-20.429-17.388-50.218-16.113-67.201 5.5133z"
      />
      <path
          id="path3969"
          class="fil2"
          fill="#050707"
          d="m61.305 74.123c-30.866 9.3689-32.821 49.81-25.828 76.495l76.459-0.0254c9.5014-26.523 3.1954-52.857-18.826-70.836-6.6703-5.4459-19.863-9.2589-31.806-5.6339z"
      />
      <path
          id="path3971"
          class="fil4"
          fill="#fdfcfd"
          d="m174.68 141.48h74.64c3.8563-12.479 2.2972-23.818-0.31496-31.809-3.8973 5.0785-8.569 6.563-13.857 7.2436-9.181 1.2217-16.692-7.3466-16.692-16.062l-0.0802-0.63896c0.89227-8.5141 2.272-8.6824 8.5836-14.478-2.4331-1.6292-7.6264-3.1493-11.653-3.1493-33.827-0.65539-50.247 37.199-40.627 58.893z"
      />
      <path
          id="path3973"
          class="fil5"
          fill="#f6bcd6"
          d="m223.2 259.78c-24.285-42.293-86.986-30.941-95.6 17.233 29.39 11.065 72.231 3.9741 95.6-17.233z"
      />
      <path
          id="path3975"
          class="fil4"
          fill="#fdfcfd"
          d="m42.72 141.48 62.752 0.0112c1.05-8.9739 3.435-21.112-1.024-30.875-10.927 12.411-30.279 6.3351-30.234-11.653 0-8.0911 4.333-9.7752 9.1332-14.172-34.666-15.646-48.763 30.431-40.627 56.689z"
      />
    </g>
  </g>
</svg>
