<?xml version="1.0" standalone="no"?>
<!DOCTYPE svg PUBLIC "-//W3C//DTD SVG 20010904//EN"
 "http://www.w3.org/TR/2001/REC-SVG-20010904/DTD/svg10.dtd">
<svg version="1.0" xmlns="http://www.w3.org/2000/svg"
 width="1em" height="1em" viewBox="0 0 401.000000 397.000000"
 preserveAspectRatio="xMidYMid meet">

<g fill="var(--chakra-colors-gray-500)" transform="translate(0.000000,397.000000) scale(0.100000,-0.100000)"
 stroke="none">
<path d="M1289 3940 c-99 -17 -209 -97 -251 -182 -34 -69 -38 -102 -46 -381
-7 -218 -8 -229 -29 -245 -39 -31 -130 -162 -186 -267 -117 -224 -163 -514
-119 -760 l20 -110 -57 -63 c-140 -157 -240 -299 -316 -449 -48 -96 -122 -278
-132 -324 -4 -20 -12 -29 -24 -29 -11 0 -19 -5 -19 -11 0 -6 7 -9 15 -5 16 6
16 5 -10 -104 -8 -30 -23 -122 -35 -205 -18 -128 -21 -189 -18 -410 l3 -259
93 3 c52 1 122 11 156 20 132 37 255 131 309 238 l22 43 24 -50 c31 -65 141
-169 216 -205 248 -117 537 -26 661 209 l31 59 33 -61 c61 -115 177 -211 300
-249 65 -20 193 -21 271 -3 127 30 237 115 299 232 l33 61 16 -34 c108 -220
303 -335 512 -300 161 26 265 98 325 222 l39 78 32 -67 c72 -152 239 -259 411
-265 l67 -2 12 260 c14 295 6 449 -32 630 -22 102 -96 358 -115 394 -5 9 -21
43 -36 76 -32 69 -123 224 -200 340 -55 83 -107 146 -185 227 l-45 47 13 88
c19 122 10 231 -32 392 -71 268 -149 424 -288 577 l-55 60 -4 235 c-4 287 -11
311 -102 404 -87 87 -137 109 -256 110 -81 0 -102 -3 -140 -24 -117 -61 -182
-153 -195 -276 -4 -36 -10 -65 -14 -65 -3 0 -46 7 -96 15 -143 24 -361 18
-457 -11 -16 -5 -18 2 -18 55 0 158 -130 311 -285 336 -22 4 -47 8 -55 10 -8
1 -36 -1 -61 -5z m29 -1195 c151 -64 165 -268 22 -340 -65 -33 -114 -32 -181
3 -124 65 -142 223 -35 308 57 46 127 56 194 29z m1120 -40 c70 -30 122 -102
122 -170 0 -165 -211 -255 -322 -137 -47 50 -62 91 -55 153 8 62 31 102 77
133 59 39 118 46 178 21z m-633 -526 c52 -13 116 -65 139 -113 62 -131 -50
-296 -200 -296 -80 0 -172 59 -201 127 -19 47 -16 127 6 171 50 97 146 139
256 111z m720 -564 c79 -13 84 -38 20 -99 -25 -24 -45 -48 -45 -53 0 -5 28
-29 63 -53 34 -24 85 -65 112 -91 43 -40 63 -51 139 -72 120 -34 126 -41 91
-105 -15 -28 -25 -57 -22 -65 3 -8 43 -27 89 -42 46 -15 109 -41 142 -57 120
-60 376 -243 376 -269 0 -5 -12 -9 -27 -9 -43 0 -200 -29 -252 -47 -68 -23
-179 -80 -225 -116 -23 -18 -81 -69 -130 -115 -50 -45 -95 -81 -100 -79 -6 2
-17 23 -24 48 -10 34 -12 90 -7 246 l7 202 -44 31 c-44 33 -170 100 -187 100
-5 0 1 -36 13 -80 29 -113 31 -112 -163 -64 -134 34 -213 73 -250 125 -17 23
-31 47 -31 53 0 6 -5 28 -10 48 -10 36 -11 37 -73 43 -104 11 -309 -11 -432
-46 -135 -38 -255 -87 -255 -104 0 -7 23 -35 51 -63 70 -67 62 -77 -53 -68
-49 4 -112 11 -140 16 -47 9 -56 7 -152 -34 -114 -50 -386 -139 -491 -161 -77
-16 -155 -20 -155 -7 0 5 39 30 86 56 47 26 84 52 82 58 -2 6 -33 21 -68 35
-87 32 -226 99 -234 111 -19 32 100 220 206 324 54 52 225 186 308 240 107 70
305 158 355 158 16 0 26 -9 36 -32 7 -18 48 -68 91 -110 87 -87 206 -154 338
-189 109 -29 338 -37 445 -15 81 17 201 69 246 106 71 59 122 121 155 186 31
61 41 73 58 69 12 -2 39 -7 61 -10z"/>
<path d="M433 1035 c-56 -24 -57 -92 -2 -121 32 -16 80 -12 98 9 23 28 23 64
-1 90 -30 33 -56 39 -95 22z"/>
</g>
</svg>
