<svg
      height="1em"
      width="1em"
      version="1.1"
      viewBox="0 0 499.99 499.99"
    >
      <g transform="translate(1935 -830.08)">
        <g transform="translate(-1935 830.08) scale(1.5439)">
          <circle
            cx="161.92"
            cy="161.92"
            r="161.8"
            fill="#000"
            stroke="#000"
            strokeWidth="0.238"
          ></circle>
          <circle
            cx="161.92"
            cy="161.92"
            r="147.48"
            fill="#FFE87C"
            stroke="#000"
            strokeWidth="0.238"
          ></circle>
          <path
            fill="#050707"
            d="M41.123 185.96h11.294c11.213 165.04 248.98 116.18 199.71-9.133H41.117v9.133z"
            className="fil2"
          ></path>
          <path
            fill="#881846"
            d="M245.86 186.21l-183.75.008c18.239 150.24 213.66 103.19 183.75-.008z"
            className="fil3"
          ></path>
          <path
            fill="#050707"
            d="M176.27 91.114c-9.671 12.316-17.811 31.937-8.209 59.503l88.527.009c6.68-20.838 4.766-49.806-13.117-65.026-20.429-17.388-50.218-16.113-67.2 5.513z"
            className="fil2"
          ></path>
          <path
            fill="#050707"
            d="M61.305 74.123c-30.866 9.369-32.821 49.81-25.828 76.495l76.459-.025c9.501-26.523 3.195-52.857-18.826-70.836-6.67-5.446-19.863-9.26-31.806-5.634z"
            className="fil2"
          ></path>
          <path
            fill="#fdfcfd"
            d="M174.68 141.48h74.64c3.856-12.479 2.297-23.818-.315-31.809-3.897 5.078-8.569 6.563-13.857 7.244-9.181 1.221-16.692-7.347-16.692-16.062l-.08-.64c.892-8.513 2.272-8.682 8.583-14.477-2.433-1.63-7.626-3.15-11.653-3.15-33.827-.655-50.247 37.2-40.627 58.893z"
            className="fil4"
          ></path>
          <path
            fill="#f6bcd6"
            d="M223.2 259.78c-24.285-42.293-86.986-30.941-95.6 17.233 29.39 11.065 72.231 3.974 95.6-17.233z"
            className="fil5"
          ></path>
          <path
            fill="#fdfcfd"
            d="M42.72 141.48l62.752.011c1.05-8.974 3.435-21.112-1.024-30.875-10.927 12.411-30.279 6.335-30.234-11.653 0-8.09 4.333-9.775 9.133-14.172-34.666-15.646-48.763 30.431-40.627 56.69z"
            className="fil4"
          ></path>
        </g>
      </g>
    </svg>