<?xml version="1.0" encoding="iso-8859-1"?>
<!-- Generator: Adobe Illustrator 19.0.0, SVG Export Plug-In . SVG Version: 6.00 Build 0)  -->
<svg version="1.1" height="1em" width="1em" id="Layer_1" xmlns="http://www.w3.org/2000/svg" xmlns:xlink="http://www.w3.org/1999/xlink" x="0px" y="0px"
	 viewBox="0 0 512 512" style="enable-background:new 0 0 512 512;" xml:space="preserve">
<polygon style="fill:#42C8C6;" points="256,57.191 307.745,256 256,454.808 503.83,256 "/>
<polygon style="fill:#81E3E2;" points="256,57.191 449.362,256 256,454.808 256,389.447 8.17,389.447 8.17,122.553 256,122.553 "/>
<circle cx="331.711" cy="332.255" r="8.17"/>
<circle cx="111.66" cy="190.638" r="8.17"/>
<circle cx="155.234" cy="212.425" r="8.17"/>
<path d="M508.942,249.626L261.112,50.818c-2.451-1.966-5.813-2.351-8.646-0.992c-2.833,1.36-4.636,4.223-4.636,7.366v57.191H8.17
	c-4.512,0-8.17,3.657-8.17,8.17v266.894c0,4.513,3.658,8.17,8.17,8.17h107.574c4.512,0,8.17-3.657,8.17-8.17s-3.658-8.17-8.17-8.17
	H16.34V130.723H256c4.512,0,8.17-3.657,8.17-8.17V74.22L490.773,256L264.17,437.78v-48.333c0-4.513-3.658-8.17-8.17-8.17H148.426
	c-4.512,0-8.17,3.657-8.17,8.17s3.658,8.17,8.17,8.17h99.404v57.191c0,3.143,1.803,6.007,4.636,7.366
	c1.124,0.539,2.332,0.804,3.533,0.804c1.825,0,3.635-0.611,5.113-1.796l247.83-198.809c1.934-1.551,3.058-3.896,3.058-6.374
	S510.876,251.177,508.942,249.626z"/>
<g>
</g>
<g>
</g>
<g>
</g>
<g>
</g>
<g>
</g>
<g>
</g>
<g>
</g>
<g>
</g>
<g>
</g>
<g>
</g>
<g>
</g>
<g>
</g>
<g>
</g>
<g>
</g>
<g>
</g>
</svg>
