<?xml version="1.0" encoding="iso-8859-1"?>
<!-- Generator: Adobe Illustrator 19.0.0, SVG Export Plug-In . SVG Version: 6.00 Build 0)  -->
<svg version="1.1" id="Layer_1" xmlns="http://www.w3.org/2000/svg" xmlns:xlink="http://www.w3.org/1999/xlink" x="0px" y="0px"
	 viewBox="0 0 512.001 512.001" style="enable-background:new 0 0 512.001 512.001;" xml:space="preserve">
<path style="fill:#D35B38;" d="M256,145.814c-60.855,0-110.186,49.333-110.186,110.186S195.145,366.187,256,366.187
	s110.186-49.332,110.186-110.186S316.855,145.814,256,145.814z M256,292.023c-19.895,0-36.023-16.128-36.023-36.023
	c0-19.895,16.128-36.023,36.023-36.023c19.895,0,36.023,16.128,36.023,36.023C292.023,275.895,275.895,292.023,256,292.023z"/>
<path style="fill:#CCCCCC;" d="M501.801,277V235c0-12.768-10.35-23.119-23.119-23.119h-16.401c-10.034,0-18.883-6.486-21.996-16.024
	c-3.137-9.614-7.007-18.896-11.541-27.784c-4.532-8.88-2.748-19.679,4.302-26.729l11.61-11.61c9.028-9.028,9.028-23.666,0-32.695
	l-29.698-29.698c-9.028-9.028-23.666-9.028-32.695,0l-11.61,11.61c-7.05,7.05-17.848,8.834-26.729,4.302
	c-8.887-4.535-18.17-8.404-27.784-11.541c-9.538-3.113-16.024-11.962-16.024-21.996V33.318c0-12.768-10.35-23.119-23.119-23.119
	h-41.999c-12.768,0-23.119,10.35-23.119,23.119V49.72c0,10.034-6.486,18.883-16.024,21.996c-9.614,3.137-18.896,7.007-27.784,11.541
	c-8.88,4.532-19.679,2.748-26.728-4.302l-11.61-11.61c-9.028-9.028-23.666-9.028-32.695,0L67.343,97.042
	c-9.028,9.028-9.028,23.666,0,32.695l11.61,11.61c7.05,7.05,8.834,17.848,4.302,26.729c-4.535,8.887-8.404,18.17-11.541,27.784
	c-3.113,9.538-11.962,16.024-21.996,16.024h-16.4c-12.768,0-23.119,10.35-23.119,23.119v41.999c0,12.768,10.35,23.119,23.119,23.119
	h16.401c10.034,0,18.883,6.486,21.996,16.024c3.137,9.614,7.007,18.896,11.541,27.784c4.532,8.88,2.748,19.679-4.302,26.729
	l-11.61,11.61c-9.028,9.028-9.028,23.666,0,32.695l29.698,29.698c9.028,9.028,23.666,9.028,32.695,0l11.61-11.61
	c7.05-7.05,17.848-8.834,26.728-4.302c8.887,4.535,18.17,8.404,27.784,11.541c9.538,3.113,16.024,11.962,16.024,21.996v16.401
	c0,12.768,10.35,23.119,23.119,23.119H277c12.768,0,23.119-10.35,23.119-23.119v-16.401c0-10.034,6.486-18.883,16.024-21.996
	c9.614-3.137,18.896-7.007,27.784-11.541c8.88-4.531,19.679-2.748,26.729,4.302l11.61,11.61c9.028,9.028,23.666,9.028,32.695,0
	l29.698-29.698c9.028-9.028,9.028-23.666,0-32.695l-11.61-11.61c-7.05-7.05-8.834-17.848-4.302-26.728
	c4.535-8.887,8.404-18.17,11.541-27.784c3.113-9.538,11.962-16.024,21.996-16.024h16.401
	C491.451,300.118,501.801,289.768,501.801,277z M256,366.187c-60.855,0-110.186-49.333-110.186-110.186S195.145,145.814,256,145.814
	s110.186,49.331,110.186,110.186S316.855,366.187,256,366.187z"/>
<g>
	<path style="fill:#4D3D36;" d="M256,376.387c-66.38,0-120.386-54.005-120.386-120.386S189.62,135.614,256,135.614
		s120.386,54.006,120.386,120.386S322.381,376.387,256,376.387z M256,156.013c-55.134,0-99.988,44.854-99.988,99.988
		s44.854,99.988,99.988,99.988s99.988-44.854,99.988-99.988S311.134,156.013,256,156.013z M256,302.222
		c-25.487,0-46.222-20.735-46.222-46.222c0-25.487,20.735-46.222,46.222-46.222c25.487,0,46.222,20.735,46.222,46.222
		S281.487,302.222,256,302.222z M256,230.177c-14.239,0-25.823,11.584-25.823,25.823c0,14.239,11.584,25.823,25.823,25.823
		s25.823-11.584,25.823-25.823C281.823,241.761,270.239,230.177,256,230.177z"/>
	<path style="fill:#4D3D36;" d="M256,343.542c-5.633,0-10.199-4.566-10.199-10.199s4.566-10.199,10.199-10.199
		c23.721,0,45.928-12.726,57.952-33.211c2.852-4.859,9.102-6.484,13.959-3.633c4.858,2.852,6.485,9.101,3.633,13.959
		C315.872,326.957,286.926,343.542,256,343.542z"/>
	<path style="fill:#4D3D36;" d="M333.004,273.616c-0.323,0-0.649-0.015-0.977-0.046c-5.608-0.533-9.721-5.512-9.187-11.119
		c0.203-2.131,0.305-4.301,0.305-6.45c0-5.633,4.566-10.199,10.199-10.199s10.199,4.566,10.199,10.199
		c0,2.792-0.134,5.612-0.397,8.382C342.643,269.661,338.201,273.616,333.004,273.616z"/>
	<path style="fill:#4D3D36;" d="M276.999,512H235c-18.372,0-33.318-14.946-33.318-33.318v-16.401c0-5.602-3.613-10.545-8.989-12.3
		c-10.008-3.266-19.852-7.354-29.254-12.151c-4.931-2.516-10.912-1.54-14.881,2.428l-11.61,11.611
		c-12.991,12.99-34.128,12.99-47.119,0l-29.698-29.698c-12.991-12.991-12.991-34.128,0-47.119l11.611-11.61
		c3.97-3.97,4.946-9.949,2.428-14.881c-4.798-9.402-8.886-19.245-12.152-29.255c-1.754-5.376-6.698-8.989-12.3-8.989h-16.4
		C14.946,310.317,0,295.371,0,277V235c0-18.372,14.946-33.318,33.318-33.318h16.401c5.602,0,10.545-3.613,12.3-8.989
		c3.266-10.009,7.355-19.853,12.152-29.255c2.516-4.931,1.54-10.911-2.429-14.881l-11.611-11.61
		c-12.991-12.991-12.991-34.128,0-47.119l29.698-29.698c12.991-12.989,34.128-12.99,47.119,0l11.61,11.611
		c3.97,3.97,9.949,4.946,14.881,2.428c9.403-4.798,19.246-8.887,29.255-12.152c5.376-1.754,8.989-6.698,8.989-12.3V33.318
		C201.683,14.946,216.629,0,235.001,0H277c18.372,0,33.318,14.946,33.318,33.318V49.72c0,5.602,3.613,10.545,8.989,12.3
		c10.008,3.266,19.852,7.354,29.254,12.151c4.933,2.516,10.913,1.54,14.881-2.428l11.61-11.611c12.992-12.991,34.129-12.99,47.119,0
		l29.698,29.698c12.991,12.991,12.991,34.128,0,47.119l-11.611,11.61c-3.97,3.97-4.946,9.949-2.428,14.881
		c4.798,9.403,8.887,19.246,12.152,29.255c1.754,5.376,6.698,8.989,12.3,8.989h16.401c18.372,0,33.318,14.946,33.318,33.318v41.999
		c0,18.372-14.946,33.318-33.318,33.318h-16.401c-5.602,0-10.545,3.613-12.3,8.989c-3.266,10.008-7.354,19.852-12.151,29.254
		c-2.517,4.931-1.541,10.912,2.428,14.881l11.611,11.61c12.991,12.991,12.991,34.128,0,47.119l-29.698,29.698
		c-12.991,12.99-34.128,12.991-47.119,0l-11.61-11.611c-3.969-3.969-9.948-4.946-14.881-2.428
		c-9.403,4.798-19.246,8.887-29.255,12.152c-5.376,1.754-8.989,6.698-8.989,12.3v16.401C310.317,497.055,295.371,512,276.999,512z
		 M157.676,416.036c5.11,0,10.256,1.186,15.035,3.625c8.457,4.315,17.31,7.992,26.312,10.929
		c13.792,4.502,23.059,17.238,23.059,31.692v16.401c0,7.123,5.795,12.919,12.919,12.919H277c7.124,0,12.919-5.796,12.919-12.919
		v-16.401c0-14.454,9.266-27.191,23.058-31.692c9.002-2.937,17.855-6.614,26.312-10.93c12.833-6.547,28.335-4.065,38.575,6.175
		l11.611,11.61c5.036,5.037,13.233,5.036,18.271,0l29.698-29.698c5.037-5.036,5.037-13.233,0-18.271l-11.61-11.611
		c-10.241-10.241-12.723-25.744-6.175-38.575c4.315-8.457,7.992-17.31,10.929-26.312c4.502-13.792,17.238-23.059,31.692-23.059
		h16.401c7.123,0,12.919-5.795,12.919-12.919v-41.999c0-7.124-5.796-12.919-12.919-12.919h-16.401
		c-14.454,0-27.191-9.266-31.692-23.058c-2.937-9.002-6.614-17.855-10.931-26.312c-6.548-12.833-4.066-28.334,6.175-38.575
		l11.61-11.611c5.037-5.036,5.037-13.233,0-18.271l-29.697-29.696c-5.036-5.037-13.232-5.037-18.271,0l-11.611,11.61
		c-10.241,10.241-25.745,12.721-38.575,6.175c-8.457-4.315-17.31-7.992-26.312-10.929c-13.792-4.502-23.059-17.238-23.059-31.692
		V33.318c0-7.123-5.795-12.919-12.919-12.919H235c-7.124,0-12.919,5.796-12.919,12.919V49.72c0,14.454-9.266,27.191-23.058,31.692
		c-9.002,2.937-17.855,6.614-26.312,10.93c-12.834,6.547-28.334,4.065-38.575-6.175l-11.611-11.611
		c-5.037-5.038-13.234-5.038-18.271,0l-29.697,29.697c-5.037,5.036-5.037,13.233,0,18.271l11.61,11.611
		c10.241,10.241,12.722,25.743,6.176,38.575c-4.315,8.457-7.993,17.309-10.93,26.312c-4.502,13.792-17.238,23.059-31.692,23.059
		H33.318c-7.123,0-12.919,5.795-12.919,12.919v41.999c0,7.124,5.796,12.919,12.919,12.919h16.401
		c14.454,0,27.191,9.266,31.692,23.058c2.937,9.003,6.615,17.855,10.93,26.312c6.548,12.834,4.065,28.335-6.175,38.576
		l-11.611,11.61c-5.037,5.036-5.037,13.233,0,18.271l29.698,29.698c5.036,5.037,13.233,5.038,18.271,0l11.611-11.61
		C140.561,419.407,149.063,416.036,157.676,416.036z M256,376.387c-66.38,0-120.386-54.005-120.386-120.386
		S189.62,135.614,256,135.614s120.386,54.006,120.386,120.386S322.381,376.387,256,376.387z M256,156.013
		c-55.134,0-99.988,44.854-99.988,99.988s44.854,99.988,99.988,99.988s99.988-44.854,99.988-99.988S311.134,156.013,256,156.013z"/>
</g>
<g>
</g>
<g>
</g>
<g>
</g>
<g>
</g>
<g>
</g>
<g>
</g>
<g>
</g>
<g>
</g>
<g>
</g>
<g>
</g>
<g>
</g>
<g>
</g>
<g>
</g>
<g>
</g>
<g>
</g>
</svg>
