<svg width="1em" height="1em" viewBox="0 0 24 24" fill="currentColor" xmlns="http://www.w3.org/2000/svg">
<path fill-rule="evenodd" clip-rule="evenodd" d="M7 9C5.34315 9 4 10.3431 4 12C4 13.6569 5.34315 15 7 15H10C10.5523 15 11 15.4477 11 16C11 16.5523 10.5523 17 10 17H7C4.23858 17 2 14.7614 2 12C2 9.23858 4.23858 7 7 7H10C10.5523 7 11 7.44772 11 8C11 8.55228 10.5523 9 10 9H7Z" />
<path fill-rule="evenodd" clip-rule="evenodd" d="M7 12C7 11.4477 7.44772 11 8 11H16C16.5523 11 17 11.4477 17 12C17 12.5523 16.5523 13 16 13H8C7.44772 13 7 12.5523 7 12Z" />
<path fill-rule="evenodd" clip-rule="evenodd" d="M17 9C18.6569 9 20 10.3431 20 12C20 13.6569 18.6569 15 17 15H14C13.4477 15 13 15.4477 13 16C13 16.5523 13.4477 17 14 17H17C19.7614 17 22 14.7614 22 12C22 9.23858 19.7614 7 17 7H14C13.4477 7 13 7.44772 13 8C13 8.55228 13.4477 9 14 9H17Z" />
</svg>
  