<?xml version="1.0" encoding="iso-8859-1"?>
<!-- Generator: Adobe Illustrator 19.0.0, SVG Export Plug-In . SVG Version: 6.00 Build 0)  -->
<svg version="1.1" id="Layer_1" xmlns="http://www.w3.org/2000/svg" xmlns:xlink="http://www.w3.org/1999/xlink" x="0px" y="0px" height="1em" width="1em"
	 viewBox="0 0 504 504" style="enable-background:new 0 0 504 504;" xml:space="preserve">
<path style="fill:#4BB19B;" d="M45.6,426.6h416.8c20.8,0,37.6-18.8,37.6-39.6v-55.6H8V387C8,407.8,24.8,426.6,45.6,426.6z
	 M102.8,352.6c14.4,0,25.6,11.6,25.6,25.6s-11.6,25.6-25.6,25.6c-14.4,0-25.6-11.6-25.6-25.6C76.8,364.2,88.4,352.6,102.8,352.6z"/>
<path style="fill:#F4EFEF;" d="M462.4,81.4H45.6C24.8,81.4,8,96.2,8,117v218.4h492V117C500,96.6,483.2,81.4,462.4,81.4z
	 M323.6,222.6L241.2,279c-3.6,2.4-7.2,3.6-10.4,3.6c-6.8,0-11.2-4.8-12-12.8c0-0.8,0-1.6,0-2.4v-118c0-0.8,0-1.6,0-2.4
	c0.8-7.6,5.2-12.8,12-12.8c3.2,0,6.8,1.2,10.4,3.6l82.8,56.4c5.6,3.6,8.4,8.8,8.4,14.4C332,213.8,329.2,219,323.6,222.6z"/>
<path style="fill:#4BB19B;" d="M230.4,278.6c2.4,0,5.2-1.2,8.4-2.8l82.4-56c4.4-3.2,6.8-7.2,6.8-11.2s-2.4-8-6.8-10.8l-82.8-56.4
	c-2.8-2-5.6-2.8-8.4-2.8c-5.2,0-8.4,4.4-8.4,11.2v118C222.4,274.2,225.2,278.6,230.4,278.6z"/>
<g>
	<path style="fill:#CCCCCC;" d="M218.4,149c0-0.8,0-1.6,0-2.4C218.4,147.4,218.4,148.2,218.4,149z"/>
	<path style="fill:#CCCCCC;" d="M218.4,267.4c0,0.8,0,1.6,0,2.4C218.4,269,218.4,268.2,218.4,267.4z"/>
</g>
<path style="fill:#F4EFEF;" d="M102.8,356.6c-12,0-22,9.6-22,22c0,12,9.6,22,22,22s22-9.6,22-22
	C124.4,366.2,114.8,356.6,102.8,356.6z"/>
<path d="M460.4,430.6H43.6C19.6,430.6,0,411,0,387V117c0-24,19.6-43.6,43.6-43.6h416.8c24,0,43.6,19.6,43.6,43.6v270
	C504,411.4,484.4,430.6,460.4,430.6z M43.6,81.8C24,81.8,8,97.8,8,117.4v270C8,407,24,423,43.6,423h416.8c19.6,0,35.6-16,35.6-35.6
	v-270c0-19.6-16-35.6-35.6-35.6H43.6z"/>
<path d="M229.2,284.6c-2.4,0-4.8-0.4-6.8-1.6c-5.2-2.8-8-8.4-8-15.6v-118c0-7.2,2.8-12.8,8-15.6c5.2-2.8,12.4-2,18.8,2.4l83.2,56.4
	c6,4,9.2,9.6,9.2,15.6c0,6.4-3.6,12-9.6,16.4L241.2,281C237.2,283.4,233.2,284.6,229.2,284.6z M229.2,139.8c-1.2,0-2,0.4-3.2,0.8
	c-2.4,1.2-4,4.4-4,8.4v118c0,4,1.2,7.2,4,8.4c2.8,1.6,6.8,0.8,10.4-2l0,0l82.8-56.4c4-2.8,6-6,6-9.6c0-3.2-2-6.8-5.6-9.2l-83.2-56
	C234,141,231.6,139.8,229.2,139.8z"/>
<path d="M75.6,383H40c-2.4,0-4-1.6-4-4s1.6-4,4-4h35.6c2.4,0,4,1.6,4,4S77.6,383,75.6,383z"/>
<path d="M472.4,383H127.2c-2.4,0-4-1.6-4-4s1.6-4,4-4h345.2c2.4,0,4,1.6,4,4S474.4,383,472.4,383z"/>
<path d="M392.8,335.4H4c-2.4,0-4-1.6-4-4s1.6-4,4-4h388.8c2.4,0,4,1.6,4,4S395.2,335.4,392.8,335.4z"/>
<path d="M500,335.4h-51.6c-2.4,0-4-1.6-4-4s1.6-4,4-4H500c2.4,0,4,1.6,4,4S502.4,335.4,500,335.4z"/>
<path d="M102.8,406.2c-15.2,0-28-12.4-28-28s12.4-28,28-28s28,12.4,28,28S118,406.2,102.8,406.2z M102.8,358.6c-10.8,0-20,8.8-20,20
	s8.8,20,20,20s20-8.8,20-20S113.6,358.6,102.8,358.6z"/>
<g>
</g>
<g>
</g>
<g>
</g>
<g>
</g>
<g>
</g>
<g>
</g>
<g>
</g>
<g>
</g>
<g>
</g>
<g>
</g>
<g>
</g>
<g>
</g>
<g>
</g>
<g>
</g>
<g>
</g>
</svg>
